# xmcd CD database file
#
# Track frame offsets:
#	150
#	3338
#	23709
#	51428
#	73769
#	105427
#	148313
#	165574
#	190809
#	230822
#	257735
#	259916
#
# Disc length: 3506 seconds
#
# Revision: 0
# Processed by: cddbd v1.5.1PL2 Copyright (c) Steve Scherf et al.
# Submitted via: CDex 1.51
#
DISCID=aa0db00c
DTITLE=K3 - PopStarr
DYEAR=2004
DGENRE=Jazz
TTITLE0=AT#1
TTITLE1=Kopfweh
TTITLE2=Gaunz Laungsam
TTITLE3=Das Es
TTITLE4=N.O.
TTITLE5=Reggie Bronx
TTITLE6=Fliegeralarm
TTITLE7=The Ease
TTITLE8=Brouthness
TTITLE9=Künstlerleben
TTITLE10=So Schön
TTITLE11=AT#3
EXTD=YEAR: 2004
EXTT0=
EXTT1=
EXTT2=
EXTT3=
EXTT4=
EXTT5=
EXTT6=
EXTT7=
EXTT8=
EXTT9=
EXTT10=
EXTT11=
PLAYORDER=
